Coordinates
version=1
nRows=10
nColumns=22
inDegrees=yes

Units are S.I. units (second, meters, Newtons, ...)
If the header above contains a line with 'inDegrees', this indicates whether rotational values are in degrees (yes) or radians (no).

endheader
time	pelvis_tilt	pelvis_list	pelvis_rotation	pelvis_tx	pelvis_ty	pelvis_tz	hip_flexion_r	hip_adduction_r	hip_rotation_r	knee_angle_r	ankle_angle_r	subtalar_angle_r	hip_flexion_l	hip_adduction_l	hip_rotation_l	knee_angle_l	ankle_angle_l	subtalar_angle_l	lumbar_extension	lumbar_bending	lumbar_rotation
      0.96000000	     -2.56704904	      2.10402615	    -38.09429760	     -0.96676166	      0.88761944	     -0.41696881	     -5.13170685	     -2.56591688	     -5.34491974	     -7.88756878	     24.16934221	     -3.34644777	     11.86776307	      0.12610929	     -4.76433863	    -40.78776922	     17.32834358	     -7.74056840	     -8.28866550	     -3.86215714	     11.01794979
      0.97000000	     -2.53919322	      2.28759987	    -38.50165626	     -0.96302420	      0.88701838	     -0.41558942	     -5.02236407	     -2.88525606	     -4.88778267	     -8.27772520	     24.39709907	     -3.57335157	     11.80883612	      0.36792019	     -5.06114361	    -41.02224621	     17.15595232	     -7.77040016	     -8.11950329	     -4.23164912	     11.44462663
      0.98000000	     -2.50084296	      2.56446442	    -38.87013264	     -0.95897193	      0.88629555	     -0.41417675	     -4.79846184	     -3.29959527	     -4.54210370	     -8.81817562	     24.65139366	     -3.66785222	     11.65021438	      0.69482117	     -5.41667044	    -41.02053056	     17.03979898	     -7.71669418	     -7.84839097	     -4.70292675	     11.75997780
      0.99000000	     -2.48914668	      2.88139523	    -39.26150459	     -0.95478023	      0.88545604	     -0.41267270	     -4.44922562	     -3.72584995	     -4.04968504	     -9.50454569	     24.96252468	     -3.85813055	     11.40161641	      1.00681166	     -5.90294956	    -40.81197580	     16.93787091	     -7.54576425	     -7.49662836	     -5.20278992	     11.99880273
      1.00000000	     -2.49630675	      3.26434912	    -39.63409271	     -0.95039795	      0.88448315	     -0.41115634	     -3.94646114	     -4.19131127	     -3.53921479	    -10.37756306	     25.25618468	     -4.23947966	     11.07559926	      1.35799050	     -6.44028130	    -40.38618912	     16.91613235	     -7.14571708	     -7.05524905	     -5.75669861	     12.20044622
      1.01000000	     -2.49889963	      3.70261204	    -39.99081856	     -0.94587366	      0.88340451	     -0.40967447	     -3.28449390	     -4.70038645	     -2.97192533	    -11.49252797	     25.59336498	     -4.55925105	     10.66413694	      1.76628593	     -6.99596048	    -39.76248298	     16.91954899	     -6.73645463	     -6.57465510	     -6.36155144	     12.32554731
      1.02000000	     -2.47941434	      4.18960754	    -40.32223017	     -0.94123983	      0.88224190	     -0.40826072	     -2.47169617	     -5.25098977	     -2.32400720	    -12.86665142	     25.99006787	     -4.82772152	     10.16732690	      2.25081822	     -7.52098061	    -38.95835479	     16.96360814	     -6.37506352	     -6.08920740	     -7.02103841	     12.35184316
      1.03000000	     -2.54215466	      4.69995204	    -40.66131975	     -0.93667312	      0.88090439	     -0.40687664	     -1.38598898	     -5.72699405	     -1.46920463	    -14.57341234	     26.26942459	     -5.61697190	      9.70687697	      2.69017970	     -8.05033595	    -38.06427924	     17.03318519	     -5.60963109	     -5.53289056	     -7.64281338	     12.38487151
      1.04000000	     -2.58535552	      5.21821075	    -40.96130957	     -0.93210564	      0.87950717	     -0.40563823	     -0.10879840	     -6.17936542	     -0.45981066	    -16.65953058	     26.60304253	     -6.48627780	      9.19920380	      3.19259643	     -8.43614338	    -37.07700621	     17.12934896	     -4.94150617	     -5.03725221	     -8.27300540	     12.34766745
      1.05000000	     -2.66155102	      5.75078333	    -41.24623262	     -0.92766132	      0.87797921	     -0.40451071	      1.44675855	     -6.54703761	      0.78754384	    -19.17951225	     26.85156054	     -7.54403366	      8.74288348	      3.69425562	     -8.74961091	    -36.08438270	     17.24620641	     -4.30111107	     -4.55603340	     -8.88133706	     12.26304266
